# xmcd
#
# Track frame offsets: 
#        150
#        23226
#        47138
#        62564
#        90025
#        114358
#        131294
#        153896
#        170925
#        197732
#        224831
#        245384
#        270021
#
# Disc length: 3865 seconds
#
# Revision: 0
# Processed by: cddbd v1.5.2PL0 Copyright (c) Steve Scherf et al.
# Submitted via: ExactAudioCopy v0.95a3
#
DISCID=a70f170d
DTITLE=Abi Wallenstein - Blues Culture 
DYEAR=2007
DGENRE=Blues
TTITLE0=01. Drive Me Crazy 
TTITLE1=02. Blues Culture
TTITLE2=03. Nobody´s Children 
TTITLE3=04. Who Is He? 
TTITLE4=05. Country Blues
TTITLE5=06. Honey Bee Boogie
TTITLE6=07. As Long I Can See The Light 
TTITLE7=08. Good Advice 
TTITLE8=09. Grinning in your face
TTITLE9=10. Come Back Baby 
TTITLE10=11. Keep On Keepin´On 
TTITLE11=12. Wild Cow Blues
TTITLE12=13. Remove This Rope
EXTD=
EXTT0=
EXTT1=
EXTT2=
EXTT3=
EXTT4=
EXTT5=
EXTT6=
EXTT7=
EXTT8=
EXTT9=
EXTT10=
EXTT11=
EXTT12=
PLAYORDER=
